<?xml version="1.0" standalone="no"?>
<!DOCTYPE svg PUBLIC "-//W3C//DTD SVG 20010904//EN"
 "http://www.w3.org/TR/2001/REC-SVG-20010904/DTD/svg10.dtd">
<svg version="1.0" xmlns="http://www.w3.org/2000/svg"
 width="200.000000pt" height="200.000000pt" viewBox="0 0 200.000000 200.000000"
 preserveAspectRatio="xMidYMid meet">

<g transform="translate(0.000000,200.000000) scale(0.100000,-0.100000)"
fill="#000000" stroke="none">
<path d="M1757 1723 c-13 -13 -7 -47 19 -100 25 -50 26 -61 21 -146 -12 -182
-54 -249 -194 -307 -95 -40 -129 -38 -268 15 -156 59 -345 64 -550 15 -110
-27 -204 -24 -289 10 -46 18 -76 39 -131 96 -40 41 -75 74 -77 74 -3 0 -5 -24
-4 -52 1 -52 1 -53 -49 -86 -32 -21 -58 -49 -72 -77 -12 -23 -29 -45 -38 -48
-24 -10 -18 -39 16 -80 30 -36 31 -37 87 -31 67 7 142 -18 201 -66 30 -26 37
-40 47 -93 6 -34 17 -83 25 -109 18 -63 3 -134 -52 -248 -53 -112 -71 -130
-125 -130 -31 0 -46 -5 -53 -18 -17 -31 10 -52 66 -52 68 0 109 32 213 162 46
57 110 129 144 161 l61 58 27 -33 c15 -18 55 -71 88 -117 75 -104 80 -149 23
-180 -47 -24 -18 -71 44 -71 37 0 48 9 61 49 23 66 5 269 -34 393 -4 12 3 21
20 29 20 9 38 7 98 -11 40 -12 100 -25 132 -28 53 -4 62 -9 94 -44 19 -22 56
-51 81 -65 83 -47 128 -102 114 -140 -17 -48 -44 -73 -79 -73 -59 0 -59 -53 0
-73 61 -20 104 14 182 143 36 60 44 82 40 108 l-5 32 42 -6 c77 -12 80 -16 72
-97 -3 -40 -11 -93 -17 -120 -11 -53 -1 -77 34 -77 28 0 44 48 68 201 11 74
23 146 26 161 6 24 1 29 -52 56 -33 17 -72 44 -88 61 -26 27 -28 34 -22 78 18
129 18 140 1 172 l-16 33 56 59 c144 151 189 424 95 573 -22 33 -36 46 -53 46
-13 0 -27 -3 -30 -7z"/>
</g>
</svg>
